FFmpeg version SVN-r25716, Copyright (c) 2000-2010 the FFmpeg developers  built on Nov 10 2010 12:23:18 with gcc 4.1.2 20080704 (Red Hat 4.1.2-48)  configuration: --enable-libmp3lame --enable-shared --disable-mmx --arch=x86_64  libavutil     50.33. 0 / 50.33. 0  libavcore      0.12. 1 /  0.12. 1  libavcodec    52.94. 4 / 52.94. 4  libavformat   52.84. 0 / 52.84. 0  libavdevice   52. 2. 2 / 52. 2. 2  libavfilter    1.59. 0 /  1.59. 0  libswscale     0.12. 0 /  0.12. 0Input #0, mov,mp4,m4a,3gp,3g2,mj2, from '/RAID10/data/converted_video_files/11814.mov':  Duration: 00:00:03.73, bitrate: 1232 kb/s    Stream #0.0(eng): Video: svq1, yuv410p, 368x377, 1229 kb/s, 8.84 fps, 60 tbr, 60 tbn, 60 tbc[buffer @ 0xc8b1330] w:368 h:377 pixfmt:yuv410p[ffsink @ 0xc8c96c0] auto-inserting filter 'auto-inserted scaler 0' between the filter 'src' and the filter 'out'[scale @ 0xc8c99b0] w:368 h:377 fmt:yuv410p -> w:368 h:377 fmt:yuv420p flags:0x4Output #0, flv, to '/RAID10/data/converted_video_files/11814.flv':  Metadata:    encoder         : Lavf52.84.0    Stream #0.0(eng): Video: flv, yuv420p, 368x377, q=2-31, 600 kb/s, 1k tbn, 24 tbcStream mapping:  Stream #0.0 -> #0.0Press [q] to stop encodingframe=   33 fps=  0 q=11.4 Lsize=     234kB time=3.71 bitrate= 517.9kbits/s    video:234kB audio:0kB global headers:0kB muxing overhead 0.308326%